<?xml version="1.0" encoding="UTF-8"?>
<!DOCTYPE svg
PUBLIC "-//W3C//DTD SVG 1.1//EN"
       "http://www.w3.org/Graphics/SVG/1.1/DTD/svg11.dtd">
<svg viewBox="364 70 1161 746" width="797px" height="676px" xmlns="http://www.w3.org/2000/svg" version="1.1">
   <line x1="388" y1="206" x2="378" y2="206" style="stroke:#c00;stroke-width:1;"/>
   <line x1="373" y1="328" x2="383" y2="328" style="stroke:#c00;stroke-width:1;"/>
   <line x1="378" y1="206" x2="373" y2="328" style="stroke:#c00;stroke-width:1;"/>
   <line x1="380.5" y1="206" x2="384.03553390593" y2="209.53553390593" style="stroke:#c00;stroke-width:2;"/>
   <line x1="380.5" y1="206" x2="384.03553390593" y2="202.46446609407" style="stroke:#c00;stroke-width:2;"/>
   <line x1="378" y1="328" x2="374.46446609407" y2="331.53553390593" style="stroke:#c00;stroke-width:2;"/>
   <line x1="378" y1="328" x2="374.46446609407" y2="324.46446609407" style="stroke:#c00;stroke-width:2;"/>
   <line x1="483" y1="681" x2="493" y2="681" style="stroke:#b0b;stroke-width:1;"/>
   <line x1="801" y1="115" x2="811" y2="115" style="stroke:#b0b;stroke-width:1;"/>
   <line x1="493" y1="681" x2="801" y2="115" style="stroke:#b0b;stroke-width:1;"/>
   <line x1="490.5" y1="681" x2="486.96446609407" y2="684.53553390593" style="stroke:#b0b;stroke-width:2;"/>
   <line x1="490.5" y1="681" x2="486.96446609407" y2="677.46446609407" style="stroke:#b0b;stroke-width:2;"/>
   <line x1="806" y1="115" x2="802.46446609407" y2="118.53553390593" style="stroke:#b0b;stroke-width:2;"/>
   <line x1="806" y1="115" x2="802.46446609407" y2="111.46446609407" style="stroke:#b0b;stroke-width:2;"/>
   <line x1="379" y1="701" x2="369" y2="701" style="stroke:#0bf;stroke-width:1;"/>
   <line x1="373" y1="328" x2="383" y2="328" style="stroke:#0bf;stroke-width:1;"/>
   <line x1="369" y1="701" x2="373" y2="328" style="stroke:#0bf;stroke-width:1;"/>
   <line x1="371.5" y1="701" x2="375.03553390593" y2="704.53553390593" style="stroke:#0bf;stroke-width:2;"/>
   <line x1="371.5" y1="701" x2="375.03553390593" y2="697.46446609407" style="stroke:#0bf;stroke-width:2;"/>
   <line x1="378" y1="328" x2="374.46446609407" y2="331.53553390593" style="stroke:#0bf;stroke-width:2;"/>
   <line x1="378" y1="328" x2="374.46446609407" y2="324.46446609407" style="stroke:#0bf;stroke-width:2;"/>
   <line x1="1038" y1="653" x2="1028" y2="653" style="stroke:#c00;stroke-width:1;"/>
   <line x1="924" y1="115" x2="914" y2="115" style="stroke:#c00;stroke-width:1;"/>
   <line x1="1028" y1="653" x2="924" y2="115" style="stroke:#c00;stroke-width:1;"/>
   <line x1="1030.5" y1="653" x2="1034.0355339059" y2="656.53553390593" style="stroke:#c00;stroke-width:2;"/>
   <line x1="1030.5" y1="653" x2="1034.0355339059" y2="649.46446609407" style="stroke:#c00;stroke-width:2;"/>
   <line x1="919" y1="115" x2="922.53553390593" y2="118.53553390593" style="stroke:#c00;stroke-width:2;"/>
   <line x1="919" y1="115" x2="922.53553390593" y2="111.46446609407" style="stroke:#c00;stroke-width:2;"/>
   <line x1="752" y1="593" x2="742" y2="593" style="stroke:#333;stroke-width:1;"/>
   <line x1="493" y1="581" x2="483" y2="581" style="stroke:#333;stroke-width:1;"/>
   <line x1="742" y1="593" x2="493" y2="581" style="stroke:#333;stroke-width:1;"/>
   <line x1="744.5" y1="593" x2="748.03553390593" y2="596.53553390593" style="stroke:#333;stroke-width:2;"/>
   <line x1="744.5" y1="593" x2="748.03553390593" y2="589.46446609407" style="stroke:#333;stroke-width:2;"/>
   <line x1="488" y1="581" x2="491.53553390593" y2="584.53553390593" style="stroke:#333;stroke-width:2;"/>
   <line x1="488" y1="581" x2="491.53553390593" y2="577.46446609407" style="stroke:#333;stroke-width:2;"/>
   <line x1="752" y1="613" x2="742" y2="613" style="stroke:#cb0;stroke-width:1;"/>
   <line x1="519" y1="126" x2="509" y2="126" style="stroke:#cb0;stroke-width:1;"/>
   <line x1="742" y1="613" x2="519" y2="126" style="stroke:#cb0;stroke-width:1;"/>
   <line x1="744.5" y1="613" x2="748.03553390593" y2="616.53553390593" style="stroke:#cb0;stroke-width:2;"/>
   <line x1="744.5" y1="613" x2="748.03553390593" y2="609.46446609407" style="stroke:#cb0;stroke-width:2;"/>
   <line x1="514" y1="126" x2="517.53553390593" y2="129.53553390593" style="stroke:#cb0;stroke-width:2;"/>
   <line x1="514" y1="126" x2="517.53553390593" y2="122.46446609407" style="stroke:#cb0;stroke-width:2;"/>
   <rect width="121" height="20" x="388" y="96" style="fill:#007;stroke:black;"/>
   <text width="121" height="20" x="393" y="110" style="fill:#fff;" font-family="Arial" font-size="16px"> cards</text>
   <rect width="121" height="20" x="388" y="116" style="fill:#aea;stroke:black;"/>
   <text width="121" height="20" x="393" y="130" style="fill:black;" font-family="Arial" font-size="16px">credit_card_id</text>
   <rect width="121" height="20" x="388" y="136" style="fill:none;stroke:black;"/>
   <text width="121" height="20" x="393" y="150" style="fill:black;" font-family="Arial" font-size="16px">credit_card_num</text>
   <rect width="121" height="20" x="388" y="156" style="fill:none;stroke:black;"/>
   <text width="121" height="20" x="393" y="170" style="fill:black;" font-family="Arial" font-size="16px">credit_card_date</text>
   <rect width="121" height="20" x="388" y="176" style="fill:none;stroke:black;"/>
   <text width="121" height="20" x="393" y="190" style="fill:black;" font-family="Arial" font-size="16px">credit_card_cvv</text>
   <rect width="121" height="20" x="388" y="196" style="fill:none;stroke:black;"/>
   <text width="121" height="20" x="393" y="210" style="fill:black;" font-family="Arial" font-size="16px">customer_id</text>
   <rect width="121" height="20" x="388" y="216" style="fill:none;stroke:black;"/>
   <text width="121" height="20" x="393" y="230" style="fill:black;" font-family="Arial" font-size="16px">created_at</text>
   <rect width="121" height="20" x="383" y="298" style="fill:#007;stroke:black;"/>
   <text width="121" height="20" x="388" y="312" style="fill:#fff;" font-family="Arial" font-size="16px"> customers</text>
   <rect width="121" height="20" x="383" y="318" style="fill:#aea;stroke:black;"/>
   <text width="121" height="20" x="388" y="332" style="fill:black;" font-family="Arial" font-size="16px">customer_id</text>
   <rect width="121" height="20" x="383" y="338" style="fill:none;stroke:black;"/>
   <text width="121" height="20" x="388" y="352" style="fill:black;" font-family="Arial" font-size="16px">email</text>
   <rect width="121" height="20" x="383" y="358" style="fill:none;stroke:black;"/>
   <text width="121" height="20" x="388" y="372" style="fill:black;" font-family="Arial" font-size="16px">customer_name</text>
   <rect width="121" height="20" x="383" y="378" style="fill:none;stroke:black;"/>
   <text width="121" height="20" x="388" y="392" style="fill:black;" font-family="Arial" font-size="16px">phone</text>
   <rect width="121" height="20" x="383" y="398" style="fill:none;stroke:black;"/>
   <text width="121" height="20" x="388" y="412" style="fill:black;" font-family="Arial" font-size="16px">ip_address</text>
   <rect width="121" height="20" x="383" y="418" style="fill:none;stroke:black;"/>
   <text width="121" height="20" x="388" y="432" style="fill:black;" font-family="Arial" font-size="16px">country</text>
   <rect width="121" height="20" x="383" y="438" style="fill:none;stroke:black;"/>
   <text width="121" height="20" x="388" y="452" style="fill:black;" font-family="Arial" font-size="16px">postal_code</text>
   <rect width="121" height="20" x="383" y="458" style="fill:none;stroke:black;"/>
   <text width="121" height="20" x="388" y="472" style="fill:black;" font-family="Arial" font-size="16px">created_at</text>
   <rect width="104" height="20" x="379" y="551" style="fill:#007;stroke:black;"/>
   <text width="104" height="20" x="384" y="565" style="fill:#fff;" font-family="Arial" font-size="16px"> orders</text>
   <rect width="104" height="20" x="379" y="571" style="fill:#aea;stroke:black;"/>
   <text width="104" height="20" x="384" y="585" style="fill:black;" font-family="Arial" font-size="16px">order_id</text>
   <rect width="104" height="20" x="379" y="591" style="fill:none;stroke:black;"/>
   <text width="104" height="20" x="384" y="605" style="fill:black;" font-family="Arial" font-size="16px">order_date</text>
   <rect width="104" height="20" x="379" y="611" style="fill:none;stroke:black;"/>
   <text width="104" height="20" x="384" y="625" style="fill:black;" font-family="Arial" font-size="16px">tax</text>
   <rect width="104" height="20" x="379" y="631" style="fill:none;stroke:black;"/>
   <text width="104" height="20" x="384" y="645" style="fill:black;" font-family="Arial" font-size="16px">shipping_cost</text>
   <rect width="104" height="20" x="379" y="651" style="fill:none;stroke:black;"/>
   <text width="104" height="20" x="384" y="665" style="fill:black;" font-family="Arial" font-size="16px">total</text>
   <rect width="104" height="20" x="379" y="671" style="fill:none;stroke:black;"/>
   <text width="104" height="20" x="384" y="685" style="fill:black;" font-family="Arial" font-size="16px">store_code</text>
   <rect width="104" height="20" x="379" y="691" style="fill:none;stroke:black;"/>
   <text width="104" height="20" x="384" y="705" style="fill:black;" font-family="Arial" font-size="16px">customer_id</text>
   <rect width="104" height="20" x="379" y="711" style="fill:none;stroke:black;"/>
   <text width="104" height="20" x="384" y="725" style="fill:black;" font-family="Arial" font-size="16px">created_at</text>
   <rect width="108" height="20" x="1038" y="383" style="fill:#007;stroke:black;"/>
   <text width="108" height="20" x="1043" y="397" style="fill:#fff;" font-family="Arial" font-size="16px"> products</text>
   <rect width="108" height="20" x="1038" y="403" style="fill:#aea;stroke:black;"/>
   <text width="108" height="20" x="1043" y="417" style="fill:black;" font-family="Arial" font-size="16px">product_id</text>
   <rect width="108" height="20" x="1038" y="423" style="fill:none;stroke:black;"/>
   <text width="108" height="20" x="1043" y="437" style="fill:black;" font-family="Arial" font-size="16px">product_name</text>
   <rect width="108" height="20" x="1038" y="443" style="fill:none;stroke:black;"/>
   <text width="108" height="20" x="1043" y="457" style="fill:black;" font-family="Arial" font-size="16px">price</text>
   <rect width="108" height="20" x="1038" y="463" style="fill:none;stroke:black;"/>
   <text width="108" height="20" x="1043" y="477" style="fill:black;" font-family="Arial" font-size="16px">sold</text>
   <rect width="108" height="20" x="1038" y="483" style="fill:none;stroke:black;"/>
   <text width="108" height="20" x="1043" y="497" style="fill:black;" font-family="Arial" font-size="16px">quantity</text>
   <rect width="108" height="20" x="1038" y="503" style="fill:none;stroke:black;"/>
   <text width="108" height="20" x="1043" y="517" style="fill:black;" font-family="Arial" font-size="16px">visible</text>
   <rect width="108" height="20" x="1038" y="523" style="fill:none;stroke:black;"/>
   <text width="108" height="20" x="1043" y="537" style="fill:black;" font-family="Arial" font-size="16px">weight_g</text>
   <rect width="108" height="20" x="1038" y="543" style="fill:none;stroke:black;"/>
   <text width="108" height="20" x="1043" y="557" style="fill:black;" font-family="Arial" font-size="16px">length_mm</text>
   <rect width="108" height="20" x="1038" y="563" style="fill:none;stroke:black;"/>
   <text width="108" height="20" x="1043" y="577" style="fill:black;" font-family="Arial" font-size="16px">width_mm</text>
   <rect width="108" height="20" x="1038" y="583" style="fill:none;stroke:black;"/>
   <text width="108" height="20" x="1043" y="597" style="fill:black;" font-family="Arial" font-size="16px">height_mm</text>
   <rect width="108" height="20" x="1038" y="603" style="fill:none;stroke:black;"/>
   <text width="108" height="20" x="1043" y="617" style="fill:black;" font-family="Arial" font-size="16px">notes</text>
   <rect width="108" height="20" x="1038" y="623" style="fill:none;stroke:black;"/>
   <text width="108" height="20" x="1043" y="637" style="fill:black;" font-family="Arial" font-size="16px">image_url</text>
   <rect width="108" height="20" x="1038" y="643" style="fill:none;stroke:black;"/>
   <text width="108" height="20" x="1043" y="657" style="fill:black;" font-family="Arial" font-size="16px">store_code</text>
   <rect width="108" height="20" x="1038" y="663" style="fill:none;stroke:black;"/>
   <text width="108" height="20" x="1043" y="677" style="fill:black;" font-family="Arial" font-size="16px">order_id</text>
   <rect width="108" height="20" x="1038" y="683" style="fill:none;stroke:black;"/>
   <text width="108" height="20" x="1043" y="697" style="fill:black;" font-family="Arial" font-size="16px">created_at</text>
   <rect width="103" height="20" x="811" y="85" style="fill:#007;stroke:black;"/>
   <text width="103" height="20" x="816" y="99" style="fill:#fff;" font-family="Arial" font-size="16px"> stores</text>
   <rect width="103" height="20" x="811" y="105" style="fill:#aea;stroke:black;"/>
   <text width="103" height="20" x="816" y="119" style="fill:black;" font-family="Arial" font-size="16px">store_code</text>
   <rect width="103" height="20" x="811" y="125" style="fill:none;stroke:black;"/>
   <text width="103" height="20" x="816" y="139" style="fill:black;" font-family="Arial" font-size="16px">store_name</text>
   <rect width="103" height="20" x="811" y="145" style="fill:none;stroke:black;"/>
   <text width="103" height="20" x="816" y="159" style="fill:black;" font-family="Arial" font-size="16px">store_url</text>
   <rect width="103" height="20" x="811" y="165" style="fill:none;stroke:black;"/>
   <text width="103" height="20" x="816" y="179" style="fill:black;" font-family="Arial" font-size="16px">store_country</text>
   <rect width="103" height="20" x="811" y="185" style="fill:none;stroke:black;"/>
   <text width="103" height="20" x="816" y="199" style="fill:black;" font-family="Arial" font-size="16px">created_at</text>
   <rect width="124" height="20" x="752" y="423" style="fill:#007;stroke:black;"/>
   <text width="124" height="20" x="757" y="437" style="fill:#fff;" font-family="Arial" font-size="16px"> transactions</text>
   <rect width="124" height="20" x="752" y="443" style="fill:#aea;stroke:black;"/>
   <text width="124" height="20" x="757" y="457" style="fill:black;" font-family="Arial" font-size="16px">transaction_id</text>
   <rect width="124" height="20" x="752" y="463" style="fill:none;stroke:black;"/>
   <text width="124" height="20" x="757" y="477" style="fill:black;" font-family="Arial" font-size="16px">billing_country</text>
   <rect width="124" height="20" x="752" y="483" style="fill:none;stroke:black;"/>
   <text width="124" height="20" x="757" y="497" style="fill:black;" font-family="Arial" font-size="16px">billing_city</text>
   <rect width="124" height="20" x="752" y="503" style="fill:none;stroke:black;"/>
   <text width="124" height="20" x="757" y="517" style="fill:black;" font-family="Arial" font-size="16px">transaction_type</text>
   <rect width="124" height="20" x="752" y="523" style="fill:none;stroke:black;"/>
   <text width="124" height="20" x="757" y="537" style="fill:black;" font-family="Arial" font-size="16px">payment_status</text>
   <rect width="124" height="20" x="752" y="543" style="fill:none;stroke:black;"/>
   <text width="124" height="20" x="757" y="557" style="fill:black;" font-family="Arial" font-size="16px">amount</text>
   <rect width="124" height="20" x="752" y="563" style="fill:none;stroke:black;"/>
   <text width="124" height="20" x="757" y="577" style="fill:black;" font-family="Arial" font-size="16px">error_code</text>
   <rect width="124" height="20" x="752" y="583" style="fill:none;stroke:black;"/>
   <text width="124" height="20" x="757" y="597" style="fill:black;" font-family="Arial" font-size="16px">order_id</text>
   <rect width="124" height="20" x="752" y="603" style="fill:none;stroke:black;"/>
   <text width="124" height="20" x="757" y="617" style="fill:black;" font-family="Arial" font-size="16px">credit_card_id</text>
   <rect width="124" height="20" x="752" y="623" style="fill:none;stroke:black;"/>
   <text width="124" height="20" x="757" y="637" style="fill:black;" font-family="Arial" font-size="16px">created_at</text>
</svg>
